Coordinates
version=1
nRows=9
nColumns=36
inDegrees=yes

Units are S.I. units (second, meters, Newtons, ...)
If the header above contains a line with 'inDegrees', this indicates whether rotational values are in degrees (yes) or radians (no).

endheader
time	pelvis_tilt	pelvis_list	pelvis_rotation	pelvis_tx	pelvis_ty	pelvis_tz	hip_flexion_r	hip_adduction_r	hip_rotation_r	knee_angle_r	knee_angle_r_beta	ankle_angle_r	subtalar_angle_r	mtp_angle_r	hip_flexion_l	hip_adduction_l	hip_rotation_l	knee_angle_l	knee_angle_l_beta	ankle_angle_l	subtalar_angle_l	mtp_angle_l	lumbar_extension	lumbar_bending	lumbar_rotation	arm_flex_r	arm_add_r	arm_rot_r	elbow_flex_r	pro_sup_r	arm_flex_l	arm_add_l	arm_rot_l	elbow_flex_l	pro_sup_l
      2.61666670	      5.25615907	     -4.56731762	      7.96583802	      0.66813514	      0.96369573	     -0.34170910	     27.88613910	     -0.68385004	     -4.46750426	      2.30937888	      0.04030627	     -3.33385527	    -16.82750549	     -7.49999987	     -3.65352209	      3.52572251	     -2.22433259	     10.13041479	      0.17680909	     15.72051648	    -12.71078877	     -7.49999987	    -16.51867649	     -5.82453810	      3.39400777	     61.97954389	     14.43260379	     74.19908978	    119.55562691	    101.74572165	     40.87520217	      5.86162329	     56.49988623	    110.75797016	     80.96602669
      2.63333330	      5.19945397	     -4.79747268	      8.06107158	      0.67201477	      0.96467042	     -0.34374261	     27.87578480	     -0.63093727	     -4.22557745	      2.16562689	      0.03779732	     -3.59369335	    -17.64801347	     -7.49999987	     -4.53119751	      3.36549331	     -1.61014474	      8.36877399	      0.14606266	     14.54836256	    -12.98148110	     -7.49999987	    -16.29130470	     -5.26778969	      2.95237107	     62.06356574	     14.71053463	     74.20819226	    118.81893961	    101.09509753	     41.16671803	      5.57857010	     56.43278420	    111.05672693	     80.24002349
      2.65000000	      4.92973442	     -5.20984500	      7.75160274	      0.66830055	      0.96414711	     -0.34205777	     28.43385971	     -0.14409102	     -4.34623739	      2.32918139	      0.04065188	     -3.91216652	    -17.89687783	     -7.49999987	     -4.75648179	      3.03296863	     -1.60390327	      7.09528983	      0.12383617	     13.80322090	    -12.78020306	     -7.49999987	    -15.86299447	     -4.70001757	      3.03050864	     62.43939488	     14.81915238	     74.03706766	    118.46919573	    101.08548703	     41.54460505	      5.34635720	     56.50227067	    111.27455536	     80.23326749
      2.66666670	      4.82636956	     -5.53435536	      7.55397648	      0.67201432	      0.96720115	     -0.34389538	     28.59970227	      0.19311496	     -4.43766274	      2.30743029	      0.04027226	     -4.18031987	    -18.12521929	     -7.49999987	     -5.52554767	      2.79227746	     -1.74795931	      5.28910305	      0.09231226	     12.65820572	    -12.94545593	     -7.49999987	    -15.53684375	     -4.25541028	      2.86946265	     62.44770899	     14.99017821	     73.96236741	    118.18838130	    101.03871030	     41.31970823	      5.08724697	     56.44720330	    112.22129944	     80.17479555
      2.68333330	      4.57871216	     -5.85095586	      7.53065124	      0.66871862	      0.96621038	     -0.34696251	     28.94990520	      0.31105395	     -4.80776195	      2.35177224	      0.04104617	     -4.33183458	    -18.14564246	     -7.49999987	     -5.84456476	      2.67814141	     -1.56697759	      4.04163293	      0.07053980	     12.11516355	    -12.83394735	     -7.49999987	    -15.21421217	     -3.65859698	      2.62954394	     62.65582470	     14.76855987	     73.88475159	    118.73941097	    100.98464972	     41.06747536	      5.11617206	     56.36245146	    112.93365994	     80.15703908
      2.70000000	      4.50371977	     -6.13362153	      7.51381847	      0.66873986	      0.96672214	     -0.34712483	     29.07299253	      0.39515067	     -5.06968387	      2.43561734	      0.04250954	     -4.52247359	    -18.30167328	     -7.49999987	     -6.22093186	      2.46221972	     -1.19805724	      3.08371642	      0.05382100	     11.44396733	    -12.94434269	     -7.49999987	    -15.13852413	     -3.17785816	      2.37668458	     62.97066369	     14.71327533	     73.74244505	    118.92785829	    100.26470241	     40.88967726	      5.18287831	     56.36513501	    113.59641114	     79.78810806
      2.71666670	      4.46095464	     -6.38328723	      7.61565170	      0.66819743	      0.96858363	     -0.34730188	     29.06167495	      0.45321075	     -5.46484889	      2.49723178	      0.04358492	     -4.81855618	    -18.28407943	     -7.49999987	     -6.61888476	      2.20360027	     -0.91586025	      2.29154642	      0.03999503	     11.11035579	    -12.47637307	     -7.49999987	    -14.95754835	     -2.78672014	      2.23292191	     63.00132749	     14.48291959	     73.83496596	    118.99098174	     96.48256011	     40.87208025	      5.22570417	     56.68596669	    113.50542100	     77.61109546
      2.73333330	      4.38456276	     -6.58253014	      7.59924343	      0.66867536	      0.96661684	     -0.34758979	     29.16505089	      0.52056292	     -5.63733354	      2.53978363	      0.04432759	     -5.18403906	    -18.44933336	     -7.49999987	     -6.80393529	      2.03156658	     -0.87331967	      1.82884473	      0.03191936	     10.90312433	    -12.07089504	     -7.49999987	    -14.58289705	     -2.43767816	      2.14264392	     62.91741422	     14.52574403	     73.50306943	    119.28368252	    100.11357715	     40.75510621	      5.20100378	     56.83291166	    113.17212805	     80.15360645
      2.75000000	      4.42658703	     -6.68851807	      7.65072606	      0.66835706	      0.96631720	     -0.34771992	     29.06269347	      0.52316692	     -5.97089504	      2.60782849	      0.04551519	     -5.55312395	    -18.79928930	     -7.49999987	     -7.05486027	      1.88359221	     -0.69373601	      1.47044044	      0.02566403	     10.54711626	    -12.25928843	     -7.49999987	    -14.39286508	     -2.20544254	      2.08772915	     62.91752841	     14.37073743	     73.17222785	    119.30572863	     99.68967857	     40.74855613	      5.18740932	     57.04674336	    112.85107257	     80.22609360
